<svg width="1440" height="317" viewBox="0 0 1440 317" fill="none" xmlns="http://www.w3.org/2000/svg">
<g clip-path="url(#clip0_21_33)">
<rect width="1440" height="317" fill="#101010"/>
<rect width="1440" height="317" fill="#252525"/>
<path d="M-12.5 147C-12.5 147 392.5 147 458.5 147C524.5 147 523.5 90 523.5 90V-24.5" stroke="#FF99DD" stroke-width="30"/>
<path d="M1467.5 146.5C1467.5 146.5 697 146.5 631 146.5C565 146.5 566 89.5 566 89.5V-25" stroke="#FFE066" stroke-width="30"/>
<path d="M-9 191C-9 191 1129 191 1195 191C1261 191 1260 248 1260 248V362.5" stroke="#66CCFF" stroke-width="30"/>
<ellipse cx="929.575" cy="191" rx="29.575" ry="29.4667" fill="#66CCFF"/>
<ellipse cx="961.425" cy="191" rx="29.575" ry="29.4667" fill="#66CCFF"/>
<rect x="929.575" y="161.533" width="31.85" height="58.9333" fill="#66CCFF"/>
<path d="M945.498 208.477C943.043 208.477 940.862 208.057 938.952 207.216C937.055 206.375 935.555 205.205 934.452 203.705C933.35 202.205 932.765 200.472 932.697 198.506H939.106C939.163 199.449 939.475 200.273 940.043 200.977C940.612 201.67 941.367 202.21 942.31 202.597C943.254 202.983 944.31 203.176 945.481 203.176C946.731 203.176 947.839 202.96 948.805 202.528C949.771 202.085 950.526 201.472 951.072 200.688C951.617 199.903 951.884 199 951.873 197.977C951.884 196.92 951.612 195.989 951.055 195.182C950.498 194.375 949.691 193.744 948.634 193.29C947.589 192.835 946.327 192.608 944.85 192.608H941.765V187.733H944.85C946.066 187.733 947.129 187.523 948.038 187.102C948.958 186.682 949.68 186.091 950.202 185.33C950.725 184.557 950.981 183.665 950.969 182.653C950.981 181.665 950.759 180.807 950.305 180.08C949.862 179.341 949.231 178.767 948.413 178.358C947.606 177.949 946.657 177.744 945.566 177.744C944.498 177.744 943.509 177.937 942.6 178.324C941.691 178.71 940.958 179.261 940.401 179.977C939.844 180.682 939.549 181.523 939.515 182.5H933.43C933.475 180.545 934.038 178.83 935.117 177.352C936.208 175.864 937.663 174.705 939.481 173.875C941.299 173.034 943.339 172.614 945.6 172.614C947.93 172.614 949.952 173.051 951.668 173.926C953.396 174.79 954.731 175.955 955.674 177.42C956.617 178.886 957.089 180.506 957.089 182.278C957.1 184.244 956.521 185.892 955.35 187.222C954.191 188.551 952.668 189.42 950.782 189.83V190.102C953.237 190.443 955.117 191.352 956.424 192.83C957.742 194.295 958.396 196.119 958.384 198.301C958.384 200.256 957.827 202.006 956.714 203.551C955.612 205.085 954.089 206.29 952.146 207.165C950.214 208.04 947.998 208.477 945.498 208.477Z" fill="#101010"/>
<ellipse cx="342.575" cy="191" rx="29.575" ry="29.4667" fill="#66CCFF"/>
<ellipse cx="374.425" cy="191" rx="29.575" ry="29.4667" fill="#66CCFF"/>
<rect x="342.575" y="161.533" width="31.85" height="58.9333" fill="#66CCFF"/>
<path d="M358.498 208.477C356.043 208.477 353.862 208.057 351.952 207.216C350.055 206.375 348.555 205.205 347.452 203.705C346.35 202.205 345.765 200.472 345.697 198.506H352.106C352.163 199.449 352.475 200.273 353.043 200.977C353.612 201.67 354.367 202.21 355.31 202.597C356.254 202.983 357.31 203.176 358.481 203.176C359.731 203.176 360.839 202.96 361.805 202.528C362.771 202.085 363.526 201.472 364.072 200.688C364.617 199.903 364.884 199 364.873 197.977C364.884 196.92 364.612 195.989 364.055 195.182C363.498 194.375 362.691 193.744 361.634 193.29C360.589 192.835 359.327 192.608 357.85 192.608H354.765V187.733H357.85C359.066 187.733 360.129 187.523 361.038 187.102C361.958 186.682 362.68 186.091 363.202 185.33C363.725 184.557 363.981 183.665 363.969 182.653C363.981 181.665 363.759 180.807 363.305 180.08C362.862 179.341 362.231 178.767 361.413 178.358C360.606 177.949 359.657 177.744 358.566 177.744C357.498 177.744 356.509 177.937 355.6 178.324C354.691 178.71 353.958 179.261 353.401 179.977C352.844 180.682 352.549 181.523 352.515 182.5H346.43C346.475 180.545 347.038 178.83 348.117 177.352C349.208 175.864 350.663 174.705 352.481 173.875C354.299 173.034 356.339 172.614 358.6 172.614C360.93 172.614 362.952 173.051 364.668 173.926C366.396 174.79 367.731 175.955 368.674 177.42C369.617 178.886 370.089 180.506 370.089 182.278C370.1 184.244 369.521 185.892 368.35 187.222C367.191 188.551 365.668 189.42 363.782 189.83V190.102C366.237 190.443 368.117 191.352 369.424 192.83C370.742 194.295 371.396 196.119 371.384 198.301C371.384 200.256 370.827 202.006 369.714 203.551C368.612 205.085 367.089 206.29 365.146 207.165C363.214 208.04 360.998 208.477 358.498 208.477Z" fill="#101010"/>
<ellipse cx="840.575" cy="146" rx="29.575" ry="29.4667" fill="#FFE066"/>
<ellipse cx="872.425" cy="146" rx="29.575" ry="29.4667" fill="#FFE066"/>
<rect x="840.575" y="116.533" width="31.85" height="58.9333" fill="#FFE066"/>
<path d="M844.696 163V158.432L856.815 146.551C857.974 145.381 858.94 144.341 859.713 143.432C860.486 142.523 861.065 141.642 861.452 140.79C861.838 139.937 862.031 139.028 862.031 138.062C862.031 136.96 861.781 136.017 861.281 135.233C860.781 134.438 860.094 133.824 859.219 133.392C858.344 132.96 857.349 132.744 856.236 132.744C855.088 132.744 854.082 132.983 853.219 133.46C852.355 133.926 851.685 134.591 851.207 135.455C850.742 136.318 850.509 137.347 850.509 138.54H844.492C844.492 136.324 844.997 134.398 846.009 132.761C847.02 131.125 848.412 129.858 850.185 128.96C851.969 128.062 854.014 127.614 856.321 127.614C858.662 127.614 860.719 128.051 862.492 128.926C864.264 129.801 865.639 131 866.616 132.523C867.605 134.045 868.099 135.784 868.099 137.739C868.099 139.045 867.849 140.33 867.349 141.591C866.849 142.852 865.969 144.25 864.707 145.784C863.457 147.318 861.702 149.176 859.44 151.358L853.423 157.477V157.716H868.628V163H844.696Z" fill="#101010"/>
<ellipse cx="253.575" cy="146" rx="29.575" ry="29.4667" fill="#FF99DD"/>
<ellipse cx="285.425" cy="146" rx="29.575" ry="29.4667" fill="#FF99DD"/>
<rect x="253.575" y="116.533" width="31.85" height="58.9333" fill="#FF99DD"/>
<path d="M275.27 128.091V163H268.946V134.244H268.742L260.577 139.46V133.665L269.253 128.091H275.27Z" fill="#101010"/>
</g>
<defs>
<clipPath id="clip0_21_33">
<rect width="1440" height="317" fill="white"/>
</clipPath>
</defs>
</svg>
