<svg width="873" height="92" viewBox="0 0 873 92" fill="none" xmlns="http://www.w3.org/2000/svg">
<path d="M0.409088 13.3523V1.18182H57.75V13.3523H36.375V71H21.7841V13.3523H0.409088Z" fill="white"/>
<path d="M56.683 71V18.6364H70.7625V27.7727H71.308C72.2625 24.5227 73.8648 22.0682 76.1148 20.4091C78.3648 18.7273 80.9557 17.8864 83.8875 17.8864C84.6148 17.8864 85.3989 17.9318 86.2398 18.0227C87.0807 18.1136 87.8193 18.2386 88.4557 18.3977V31.2841C87.7739 31.0796 86.8307 30.8977 85.6261 30.7386C84.4216 30.5796 83.3193 30.5 82.3193 30.5C80.183 30.5 78.2739 30.9659 76.592 31.8977C74.933 32.8068 73.6148 34.0795 72.6375 35.7159C71.683 37.3523 71.2057 39.2386 71.2057 41.375V71H56.683Z" fill="white"/>
<path d="M104.596 71.9886C101.255 71.9886 98.2778 71.4091 95.6642 70.25C93.0506 69.0682 90.9824 67.3296 89.4597 65.0341C87.9597 62.7159 87.2097 59.8296 87.2097 56.375C87.2097 53.4659 87.7437 51.0227 88.8119 49.0455C89.8801 47.0682 91.3347 45.4773 93.1756 44.2727C95.0165 43.0682 97.1074 42.1591 99.4483 41.5455C101.812 40.9318 104.289 40.5 106.88 40.25C109.926 39.9318 112.38 39.6364 114.244 39.3636C116.107 39.0682 117.46 38.6364 118.301 38.0682C119.141 37.5 119.562 36.6591 119.562 35.5455V35.3409C119.562 33.1818 118.88 31.5114 117.516 30.3295C116.176 29.1477 114.266 28.5568 111.789 28.5568C109.176 28.5568 107.096 29.1364 105.551 30.2955C104.005 31.4318 102.982 32.8636 102.482 34.5909L89.0506 33.5C89.7324 30.3182 91.0733 27.5682 93.0733 25.25C95.0733 22.9091 97.6528 21.1136 100.812 19.8636C103.994 18.5909 107.676 17.9546 111.857 17.9546C114.766 17.9546 117.551 18.2955 120.21 18.9773C122.891 19.6591 125.266 20.7159 127.335 22.1477C129.426 23.5796 131.073 25.4205 132.278 27.6705C133.482 29.8977 134.085 32.5682 134.085 35.6818V71H120.312V63.7386H119.903C119.062 65.375 117.937 66.8182 116.528 68.0682C115.119 69.2955 113.426 70.2614 111.448 70.9659C109.471 71.6477 107.187 71.9886 104.596 71.9886ZM108.755 61.9659C110.891 61.9659 112.778 61.5455 114.414 60.7046C116.051 59.8409 117.335 58.6818 118.266 57.2273C119.198 55.7727 119.664 54.125 119.664 52.2841V46.7273C119.21 47.0227 118.585 47.2955 117.789 47.5455C117.016 47.7727 116.141 47.9886 115.164 48.1932C114.187 48.375 113.21 48.5455 112.232 48.7046C111.255 48.8409 110.369 48.9659 109.573 49.0796C107.869 49.3296 106.38 49.7273 105.107 50.2727C103.835 50.8182 102.846 51.5568 102.141 52.4886C101.437 53.3977 101.085 54.5341 101.085 55.8977C101.085 57.875 101.801 59.3864 103.232 60.4318C104.687 61.4546 106.528 61.9659 108.755 61.9659Z" fill="white"/>
<path d="M155.074 40.7273V71H140.552V18.6364H154.393V27.875H155.006C156.165 24.8296 158.109 22.4205 160.836 20.6477C163.563 18.8523 166.87 17.9546 170.756 17.9546C174.393 17.9546 177.563 18.75 180.268 20.3409C182.972 21.9318 185.074 24.2046 186.574 27.1591C188.074 30.0909 188.824 33.5909 188.824 37.6591V71H174.302V40.25C174.324 37.0455 173.506 34.5455 171.847 32.75C170.188 30.9318 167.904 30.0227 164.995 30.0227C163.04 30.0227 161.313 30.4432 159.813 31.2841C158.336 32.125 157.177 33.3523 156.336 34.9659C155.518 36.5568 155.097 38.4773 155.074 40.7273Z" fill="white"/>
<path d="M239.039 33.5682L225.743 34.3864C225.516 33.25 225.027 32.2273 224.277 31.3182C223.527 30.3864 222.539 29.6477 221.311 29.1023C220.107 28.5341 218.664 28.25 216.982 28.25C214.732 28.25 212.834 28.7273 211.289 29.6818C209.743 30.6136 208.97 31.8636 208.97 33.4318C208.97 34.6818 209.47 35.7386 210.47 36.6023C211.47 37.4659 213.186 38.1591 215.618 38.6818L225.095 40.5909C230.186 41.6364 233.982 43.3182 236.482 45.6364C238.982 47.9545 240.232 51 240.232 54.7727C240.232 58.2046 239.22 61.2159 237.198 63.8068C235.198 66.3977 232.448 68.4205 228.948 69.875C225.47 71.3068 221.459 72.0227 216.914 72.0227C209.982 72.0227 204.459 70.5795 200.345 67.6932C196.255 64.7841 193.857 60.8296 193.152 55.8296L207.436 55.0796C207.868 57.1932 208.914 58.8068 210.573 59.9205C212.232 61.0114 214.357 61.5568 216.948 61.5568C219.493 61.5568 221.539 61.0682 223.084 60.0909C224.652 59.0909 225.448 57.8068 225.47 56.2386C225.448 54.9205 224.891 53.8409 223.8 53C222.709 52.1364 221.027 51.4773 218.755 51.0227L209.686 49.2159C204.573 48.1932 200.766 46.4205 198.266 43.8977C195.789 41.375 194.55 38.1591 194.55 34.25C194.55 30.8864 195.459 27.9886 197.277 25.5568C199.118 23.125 201.698 21.25 205.016 19.9318C208.357 18.6136 212.266 17.9546 216.743 17.9546C223.357 17.9546 228.561 19.3523 232.357 22.1477C236.175 24.9432 238.402 28.75 239.039 33.5682Z" fill="white"/>
<path d="M244.577 71V13.5H259.099V71H244.577Z" fill="#868686"/>
<path d="M293.785 18.6364V29.5455H262.251V18.6364H293.785ZM269.41 6.09092H283.933V54.9091C283.933 56.25 284.138 57.2955 284.547 58.0455C284.956 58.7727 285.524 59.2841 286.251 59.5796C287.001 59.875 287.865 60.0227 288.842 60.0227C289.524 60.0227 290.206 59.9659 290.888 59.8523C291.569 59.7159 292.092 59.6136 292.456 59.5455L294.74 70.3523C294.013 70.5796 292.99 70.8409 291.672 71.1364C290.353 71.4545 288.751 71.6477 286.865 71.7159C283.365 71.8523 280.297 71.3864 277.66 70.3182C275.047 69.25 273.012 67.5909 271.558 65.3409C270.103 63.0909 269.388 60.25 269.41 56.8182V6.09092Z" fill="white"/>
<path d="M299.843 1.18182H318.048L337.275 48.0909H338.093L357.32 1.18182H375.525V71H361.207V25.5568H360.627L342.559 70.6591H332.809L314.741 25.3864H314.161V71H299.843V1.18182Z" fill="white"/>
<path d="M397.546 71.9886C394.205 71.9886 391.228 71.4091 388.614 70.25C386.001 69.0682 383.932 67.3296 382.41 65.0341C380.91 62.7159 380.16 59.8296 380.16 56.375C380.16 53.4659 380.694 51.0227 381.762 49.0455C382.83 47.0682 384.285 45.4773 386.126 44.2727C387.966 43.0682 390.057 42.1591 392.398 41.5455C394.762 40.9318 397.239 40.5 399.83 40.25C402.876 39.9318 405.33 39.6364 407.194 39.3636C409.057 39.0682 410.41 38.6364 411.251 38.0682C412.091 37.5 412.512 36.6591 412.512 35.5455V35.3409C412.512 33.1818 411.83 31.5114 410.466 30.3295C409.126 29.1477 407.216 28.5568 404.739 28.5568C402.126 28.5568 400.046 29.1364 398.501 30.2955C396.955 31.4318 395.932 32.8636 395.432 34.5909L382.001 33.5C382.682 30.3182 384.023 27.5682 386.023 25.25C388.023 22.9091 390.603 21.1136 393.762 19.8636C396.944 18.5909 400.626 17.9546 404.807 17.9546C407.716 17.9546 410.501 18.2955 413.16 18.9773C415.841 19.6591 418.216 20.7159 420.285 22.1477C422.376 23.5796 424.023 25.4205 425.228 27.6705C426.432 29.8977 427.035 32.5682 427.035 35.6818V71H413.262V63.7386H412.853C412.012 65.375 410.887 66.8182 409.478 68.0682C408.069 69.2955 406.376 70.2614 404.398 70.9659C402.421 71.6477 400.137 71.9886 397.546 71.9886ZM401.705 61.9659C403.841 61.9659 405.728 61.5455 407.364 60.7046C409.001 59.8409 410.285 58.6818 411.216 57.2273C412.148 55.7727 412.614 54.125 412.614 52.2841V46.7273C412.16 47.0227 411.535 47.2955 410.739 47.5455C409.966 47.7727 409.091 47.9886 408.114 48.1932C407.137 48.375 406.16 48.5455 405.182 48.7046C404.205 48.8409 403.319 48.9659 402.523 49.0796C400.819 49.3296 399.33 49.7273 398.057 50.2727C396.785 50.8182 395.796 51.5568 395.091 52.4886C394.387 53.3977 394.035 54.5341 394.035 55.8977C394.035 57.875 394.751 59.3864 396.182 60.4318C397.637 61.4546 399.478 61.9659 401.705 61.9659Z" fill="white"/>
<path d="M433.502 90.6364V18.6364H447.82V27.4318H448.468C449.104 26.0227 450.024 24.5909 451.229 23.1364C452.456 21.6591 454.047 20.4318 456.002 19.4546C457.979 18.4546 460.434 17.9546 463.365 17.9546C467.184 17.9546 470.706 18.9546 473.934 20.9546C477.161 22.9318 479.74 25.9205 481.672 29.9205C483.604 33.8977 484.57 38.8864 484.57 44.8864C484.57 50.7273 483.627 55.6591 481.74 59.6818C479.877 63.6818 477.331 66.7159 474.104 68.7841C470.899 70.8296 467.309 71.8523 463.331 71.8523C460.513 71.8523 458.115 71.3864 456.138 70.4546C454.184 69.5227 452.581 68.3523 451.331 66.9432C450.081 65.5114 449.127 64.0682 448.468 62.6136H448.024V90.6364H433.502ZM447.718 44.8182C447.718 47.9318 448.149 50.6477 449.013 52.9659C449.877 55.2841 451.127 57.0909 452.763 58.3864C454.399 59.6591 456.388 60.2955 458.729 60.2955C461.093 60.2955 463.093 59.6477 464.729 58.3523C466.365 57.0341 467.604 55.2159 468.445 52.8977C469.309 50.5568 469.74 47.8636 469.74 44.8182C469.74 41.7955 469.32 39.1364 468.479 36.8409C467.638 34.5455 466.399 32.75 464.763 31.4545C463.127 30.1591 461.115 29.5114 458.729 29.5114C456.365 29.5114 454.365 30.1364 452.729 31.3864C451.115 32.6364 449.877 34.4091 449.013 36.7046C448.149 39 447.718 41.7046 447.718 44.8182Z" fill="white"/>
<path d="M514.474 71H489.724V1.18182H514.679C521.702 1.18182 527.747 2.57955 532.815 5.37501C537.884 8.14773 541.781 12.1364 544.509 17.3409C547.259 22.5455 548.634 28.7727 548.634 36.0227C548.634 43.2955 547.259 49.5455 544.509 54.7727C541.781 60 537.861 64.0114 532.747 66.8068C527.656 69.6023 521.565 71 514.474 71ZM504.486 58.3523H513.861C518.224 58.3523 521.895 57.5796 524.872 56.0341C527.872 54.4659 530.122 52.0455 531.622 48.7727C533.145 45.4773 533.906 41.2273 533.906 36.0227C533.906 30.8636 533.145 26.6477 531.622 23.375C530.122 20.1023 527.883 17.6932 524.906 16.1477C521.929 14.6023 518.259 13.8296 513.895 13.8296H504.486V58.3523Z" fill="white"/>
<path d="M578.359 72.0227C572.973 72.0227 568.336 70.9318 564.45 68.75C560.586 66.5455 557.609 63.4318 555.518 59.4091C553.427 55.3636 552.382 50.5796 552.382 45.0568C552.382 39.6705 553.427 34.9432 555.518 30.875C557.609 26.8068 560.552 23.6364 564.348 21.3636C568.166 19.0909 572.643 17.9546 577.78 17.9546C581.234 17.9546 584.45 18.5114 587.427 19.625C590.427 20.7159 593.041 22.3636 595.268 24.5682C597.518 26.7727 599.268 29.5455 600.518 32.8864C601.768 36.2046 602.393 40.0909 602.393 44.5455V48.5341H558.177V39.5341H588.723C588.723 37.4432 588.268 35.5909 587.359 33.9773C586.45 32.3636 585.189 31.1023 583.575 30.1932C581.984 29.2614 580.132 28.7955 578.018 28.7955C575.814 28.7955 573.859 29.3068 572.155 30.3295C570.473 31.3295 569.155 32.6818 568.2 34.3864C567.245 36.0682 566.757 37.9432 566.734 40.0114V48.5682C566.734 51.1591 567.211 53.3977 568.166 55.2841C569.143 57.1705 570.518 58.625 572.291 59.6477C574.064 60.6705 576.166 61.1818 578.598 61.1818C580.211 61.1818 581.689 60.9546 583.03 60.5C584.37 60.0455 585.518 59.3636 586.473 58.4546C587.427 57.5455 588.155 56.4318 588.655 55.1136L602.086 56C601.405 59.2273 600.007 62.0455 597.893 64.4546C595.802 66.8409 593.098 68.7046 589.78 70.0455C586.484 71.3636 582.677 72.0227 578.359 72.0227Z" fill="white"/>
<path d="M650.639 33.5682L637.343 34.3864C637.116 33.25 636.627 32.2273 635.877 31.3182C635.127 30.3864 634.139 29.6477 632.911 29.1023C631.707 28.5341 630.264 28.25 628.582 28.25C626.332 28.25 624.434 28.7273 622.889 29.6818C621.343 30.6136 620.57 31.8636 620.57 33.4318C620.57 34.6818 621.07 35.7386 622.07 36.6023C623.07 37.4659 624.786 38.1591 627.218 38.6818L636.695 40.5909C641.786 41.6364 645.582 43.3182 648.082 45.6364C650.582 47.9545 651.832 51 651.832 54.7727C651.832 58.2046 650.82 61.2159 648.798 63.8068C646.798 66.3977 644.048 68.4205 640.548 69.875C637.07 71.3068 633.059 72.0227 628.514 72.0227C621.582 72.0227 616.059 70.5795 611.945 67.6932C607.855 64.7841 605.457 60.8296 604.752 55.8296L619.036 55.0796C619.468 57.1932 620.514 58.8068 622.173 59.9205C623.832 61.0114 625.957 61.5568 628.548 61.5568C631.093 61.5568 633.139 61.0682 634.684 60.0909C636.252 59.0909 637.048 57.8068 637.07 56.2386C637.048 54.9205 636.491 53.8409 635.4 53C634.309 52.1364 632.627 51.4773 630.355 51.0227L621.286 49.2159C616.173 48.1932 612.366 46.4205 609.866 43.8977C607.389 41.375 606.15 38.1591 606.15 34.25C606.15 30.8864 607.059 27.9886 608.877 25.5568C610.718 23.125 613.298 21.25 616.616 19.9318C619.957 18.6136 623.866 17.9546 628.343 17.9546C634.957 17.9546 640.161 19.3523 643.957 22.1477C647.775 24.9432 650.002 28.75 650.639 33.5682Z" fill="white"/>
<path d="M656.177 71V13.5H670.699V71H656.177Z" fill="#868686"/>
<path d="M701.124 91.7273C696.419 91.7273 692.385 91.0795 689.022 89.7841C685.681 88.5114 683.022 86.7727 681.044 84.5682C679.067 82.3636 677.783 79.8864 677.192 77.1364L690.624 75.3296C691.033 76.375 691.681 77.3523 692.567 78.2614C693.453 79.1705 694.624 79.8977 696.078 80.4432C697.556 81.0114 699.351 81.2955 701.465 81.2955C704.624 81.2955 707.226 80.5227 709.272 78.9773C711.34 77.4546 712.374 74.8977 712.374 71.3068V61.7273H711.76C711.124 63.1818 710.169 64.5568 708.897 65.8523C707.624 67.1477 705.987 68.2046 703.987 69.0227C701.987 69.8409 699.601 70.25 696.828 70.25C692.897 70.25 689.317 69.3409 686.09 67.5227C682.885 65.6818 680.328 62.875 678.419 59.1023C676.533 55.3068 675.59 50.5114 675.59 44.7159C675.59 38.7841 676.556 33.8296 678.487 29.8523C680.419 25.875 682.988 22.8977 686.192 20.9205C689.419 18.9432 692.953 17.9546 696.794 17.9546C699.726 17.9546 702.181 18.4546 704.158 19.4546C706.135 20.4318 707.726 21.6591 708.931 23.1364C710.158 24.5909 711.101 26.0227 711.76 27.4318H712.306V18.6364H726.726V71.5114C726.726 75.9659 725.635 79.6932 723.453 82.6932C721.272 85.6932 718.249 87.9432 714.385 89.4432C710.544 90.9659 706.124 91.7273 701.124 91.7273ZM701.431 59.3409C703.772 59.3409 705.749 58.7614 707.362 57.6023C708.999 56.4205 710.249 54.7386 711.112 52.5568C711.999 50.3523 712.442 47.7159 712.442 44.6477C712.442 41.5796 712.01 38.9205 711.147 36.6705C710.283 34.3977 709.033 32.6364 707.397 31.3864C705.76 30.1364 703.772 29.5114 701.431 29.5114C699.044 29.5114 697.033 30.1591 695.397 31.4545C693.76 32.7273 692.522 34.5 691.681 36.7727C690.84 39.0455 690.419 41.6705 690.419 44.6477C690.419 47.6705 690.84 50.2841 691.681 52.4886C692.544 54.6705 693.783 56.3636 695.397 57.5682C697.033 58.75 699.044 59.3409 701.431 59.3409Z" fill="white"/>
<path d="M748.006 40.7273V71H733.483V18.6364H747.324V27.875H747.937C749.097 24.8296 751.04 22.4205 753.767 20.6477C756.494 18.8523 759.801 17.9546 763.687 17.9546C767.324 17.9546 770.494 18.75 773.199 20.3409C775.903 21.9318 778.006 24.2046 779.506 27.1591C781.006 30.0909 781.756 33.5909 781.756 37.6591V71H767.233V40.25C767.256 37.0455 766.438 34.5455 764.778 32.75C763.119 30.9318 760.835 30.0227 757.926 30.0227C755.972 30.0227 754.244 30.4432 752.744 31.2841C751.267 32.125 750.108 33.3523 749.267 34.9659C748.449 36.5568 748.028 38.4773 748.006 40.7273Z" fill="white"/>
<path d="M812.265 72.0227C806.879 72.0227 802.243 70.9318 798.356 68.75C794.493 66.5455 791.515 63.4318 789.424 59.4091C787.334 55.3636 786.288 50.5796 786.288 45.0568C786.288 39.6705 787.334 34.9432 789.424 30.875C791.515 26.8068 794.459 23.6364 798.254 21.3636C802.072 19.0909 806.549 17.9546 811.686 17.9546C815.14 17.9546 818.356 18.5114 821.334 19.625C824.334 20.7159 826.947 22.3636 829.174 24.5682C831.424 26.7727 833.174 29.5455 834.424 32.8864C835.674 36.2046 836.299 40.0909 836.299 44.5455V48.5341H792.084V39.5341H822.629C822.629 37.4432 822.174 35.5909 821.265 33.9773C820.356 32.3636 819.095 31.1023 817.481 30.1932C815.89 29.2614 814.038 28.7955 811.924 28.7955C809.72 28.7955 807.765 29.3068 806.061 30.3295C804.379 31.3295 803.061 32.6818 802.106 34.3864C801.152 36.0682 800.663 37.9432 800.64 40.0114V48.5682C800.64 51.1591 801.118 53.3977 802.072 55.2841C803.049 57.1705 804.424 58.625 806.197 59.6477C807.97 60.6705 810.072 61.1818 812.504 61.1818C814.118 61.1818 815.595 60.9546 816.936 60.5C818.277 60.0455 819.424 59.3636 820.379 58.4546C821.334 57.5455 822.061 56.4318 822.561 55.1136L835.993 56C835.311 59.2273 833.913 62.0455 831.799 64.4546C829.709 66.8409 827.004 68.7046 823.686 70.0455C820.39 71.3636 816.584 72.0227 812.265 72.0227Z" fill="white"/>
<path d="M840.977 71V18.6364H855.056V27.7727H855.602C856.556 24.5227 858.159 22.0682 860.409 20.4091C862.659 18.7273 865.249 17.8864 868.181 17.8864C868.909 17.8864 869.693 17.9318 870.534 18.0227C871.374 18.1136 872.113 18.2386 872.749 18.3977V31.2841C872.068 31.0796 871.124 30.8977 869.92 30.7386C868.715 30.5796 867.613 30.5 866.613 30.5C864.477 30.5 862.568 30.9659 860.886 31.8977C859.227 32.8068 857.909 34.0795 856.931 35.7159C855.977 37.3523 855.499 39.2386 855.499 41.375V71H840.977Z" fill="white"/>
<path d="M243.496 20.4919C245.861 22.8307 248.696 24.0001 252 24.0001C255.304 24.0001 258.122 22.8307 260.452 20.4919C262.817 18.1161 264 15.2761 264 11.9722C264 8.70536 262.817 5.90257 260.452 3.56382C258.122 1.18794 255.304 0 252 0C248.696 0 245.861 1.18794 243.496 3.56382C241.165 5.90257 240 8.70536 240 11.9722C240 15.2761 241.165 18.1161 243.496 20.4919Z" fill="black"/>
<path d="M247.275 16.7177C248.589 18.017 250.164 18.6667 252 18.6667C253.836 18.6667 255.401 18.017 256.696 16.7177C258.01 15.3978 258.667 13.8201 258.667 11.9845C258.667 10.1696 258.01 8.61252 256.696 7.31321C255.401 5.99328 253.836 5.33331 252 5.33331C250.164 5.33331 248.589 5.99328 247.275 7.31321C245.981 8.61252 245.333 10.1696 245.333 11.9845C245.333 13.8201 245.981 15.3978 247.275 16.7177Z" fill="white"/>
<path d="M655.496 20.4919C657.861 22.8307 660.696 24.0001 664 24.0001C667.304 24.0001 670.122 22.8307 672.452 20.4919C674.817 18.1161 676 15.2761 676 11.9722C676 8.70536 674.817 5.90257 672.452 3.56382C670.122 1.18794 667.304 0 664 0C660.696 0 657.861 1.18794 655.496 3.56382C653.165 5.90257 652 8.70536 652 11.9722C652 15.2761 653.165 18.1161 655.496 20.4919Z" fill="black"/>
<path d="M659.275 16.7177C660.589 18.017 662.164 18.6667 664 18.6667C665.836 18.6667 667.401 18.017 668.696 16.7177C670.01 15.3978 670.667 13.8201 670.667 11.9845C670.667 10.1696 670.01 8.61252 668.696 7.31321C667.401 5.99328 665.836 5.33331 664 5.33331C662.164 5.33331 660.589 5.99328 659.275 7.31321C657.981 8.61252 657.333 10.1696 657.333 11.9845C657.333 13.8201 657.981 15.3978 659.275 16.7177Z" fill="white"/>
</svg>
